PathFileType	4	(X/Y/Z)	C:\Users\dbl\Desktop\20210112(1)\20210112\bx_y_5_901.trc
DataRate	CameraRate	NumFrames	NumMarkers	Units	OrigDataRate	OrigDataStartFrame	OrigNumFrames
50.00	50.00	       4	43	mm	50.00	198	       527
Frame#	Time	Top.Head			R.Acromium			L.Acromium			Sternum			R.ASIS			L.ASIS			V.Sacral			R.Thigh.Upper			R.Thigh.Front			R.Thigh.Rear			R.Knee.Lat			R.Knee.Med			R.Shank.Upper			R.Shank.Front			R.Shank.Rear			R.Ankle.Lat			R.Midfoot.Lat			R.Toe.Lat			R.Toe.Tip			R.Toe.Med			R.Ankle.Med			R.Midfoot.Sup			R.Heel			L.Thigh.Upper			L.Thigh.Front			L.Thigh.Rear			L.Knee.Lat			L.Knee.Med			L.Shank.Upper			L.Shank.Front			L.Shank.Rear			L.Ankle.Lat			L.Midfoot.Lat			L.Toe.Lat			L.Toe.Tip			L.Toe.Med			L.Ankle.Med			L.Midfoot.Sup			L.Heel			origin1 front left			origin2 front right			origin 3 back right			origin 4 back leftt			
		X1	Y1	Z1	X2	Y2	Z2	X3	Y3	Z3	X4	Y4	Z4	X5	Y5	Z5	X6	Y6	Z6	X7	Y7	Z7	X8	Y8	Z8	X9	Y9	Z9	X10	Y10	Z10	X11	Y11	Z11	X12	Y12	Z12	X13	Y13	Z13	X14	Y14	Z14	X15	Y15	Z15	X16	Y16	Z16	X17	Y17	Z17	X18	Y18	Z18	X19	Y19	Z19	X20	Y20	Z20	X21	Y21	Z21	X22	Y22	Z22	X23	Y23	Z23	X24	Y24	Z24	X25	Y25	Z25	X26	Y26	Z26	X27	Y27	Z27	X28	Y28	Z28	X29	Y29	Z29	X30	Y30	Z30	X31	Y31	Z31	X32	Y32	Z32	X33	Y33	Z33	X34	Y34	Z34	X35	Y35	Z35	X36	Y36	Z36	X37	Y37	Z37	X38	Y38	Z38	X39	Y39	Z39	X40	Y40	Z40	X41	Y41	Z41	X42	Y42	Z42	X43	Y43	Z43	

198	3.940	-593.96289	92.08740	1831.45508	-628.32727	-79.39799	1527.00635	-625.65350	276.37021	1526.09607	-579.69794	91.12740	1398.79932	-669.43542	-11.42103	1051.46838	-654.93323	210.86163	1067.29309	-869.20850	102.61778	1050.58630	-716.55493	-64.21441	860.29413	-657.89001	-9.28541	810.52289	-744.66492	-50.67539	708.35425	-750.18518	-26.25807	616.03204	-728.99048	80.47070	574.53247	-758.54053	-22.97031	567.61029	-702.91040	17.84942	525.20465	-798.58429	-32.58401	485.73550	-770.79834	-6.86273	205.65271	-665.56873	-68.72929	161.36914	-624.43079	-79.41309	158.70152	-561.04816	-40.35250	162.72585	-603.45923	18.90149	167.93398	-719.41467	74.78738	218.85211	-675.10718	54.22380	161.51393	-795.88660	54.19901	173.02495	-707.59070	281.02567	879.73254	-650.78979	214.06125	828.97797	-748.26062	276.68558	750.14661	-769.61829	254.03459	637.85834	-732.98602	145.37192	576.17499	-767.59424	249.35536	575.22156	-711.73712	206.40704	537.36133	-802.52502	260.68167	499.44907	-773.14185	226.69182	203.21829	-665.47296	299.10309	159.73111	-627.80261	306.97705	161.59459	-562.02600	260.40085	165.50082	-595.62164	223.24902	173.54239	-715.36194	155.79124	219.72559	-676.00696	174.22194	159.44743	-797.76215	176.37779	182.51883	-527.93695	303.64630	146.45720	-518.02533	-73.15005	143.00017	-875.83862	-78.86203	141.16522	-882.55939	296.10522	144.65321	
199	3.960	-602.54254	90.81459	1834.81104	-635.49023	-80.06785	1529.70154	-632.23163	276.06015	1528.74866	-583.39978	90.55863	1402.50818	-666.32239	-12.21571	1051.55469	-651.23969	210.77721	1068.09692	-866.05322	102.40666	1049.75293	-712.73981	-64.29865	860.32355	-654.71295	-9.63105	810.25519	-741.97321	-50.95229	708.50171	-748.22937	-26.48899	616.14380	-727.07886	80.26035	574.57117	-756.78564	-23.08637	567.67310	-701.40173	17.47987	525.05194	-797.57306	-32.59932	485.96155	-770.74414	-6.70911	205.64532	-665.56396	-68.62627	161.32762	-624.52393	-79.43417	158.68425	-561.04132	-40.37904	162.71281	-603.58759	18.74524	168.03766	-719.15002	74.92350	218.75798	-675.05505	54.21715	161.42825	-795.84973	54.38230	173.11292	-703.64093	280.75381	879.87018	-647.25525	213.35869	828.64838	-744.67700	276.25558	750.31262	-766.72168	253.72202	638.16669	-730.56335	145.04413	576.25958	-765.23022	249.02068	575.44415	-709.68225	206.17426	537.28198	-800.73535	260.33102	499.91190	-772.98907	226.68930	203.30447	-665.51105	299.15622	159.72624	-627.81213	306.99554	161.61031	-562.02557	260.47260	165.57065	-595.58734	223.22523	173.58185	-715.06427	155.79475	219.72021	-675.94116	174.24704	159.42026	-797.65552	176.43910	182.43221	-527.95105	303.64911	146.47433	-518.02148	-73.14149	143.00839	-875.67810	-78.80824	141.03926	-882.59888	296.11859	144.62712	
200	3.980	-610.72162	89.61562	1837.75635	-642.25067	-80.64138	1532.04187	-638.50171	275.86618	1531.04517	-587.02808	90.15112	1405.84961	-663.31183	-13.05157	1051.66968	-647.74548	210.82269	1068.80237	-862.89722	102.08293	1048.87317	-709.02179	-64.41766	860.36243	-651.59485	-9.95652	810.07898	-739.15930	-51.28585	708.67865	-746.27838	-26.77650	616.20544	-725.29150	80.02185	574.67212	-755.05597	-23.40800	567.81671	-699.91034	17.08645	524.95380	-796.19745	-32.62996	486.05328	-770.77759	-6.67392	205.65825	-665.54285	-68.56915	161.28209	-624.55994	-79.48365	158.64816	-561.05481	-40.42653	162.68988	-603.68555	18.50360	168.15186	-718.92944	74.98013	218.66478	-675.02106	54.19998	161.33525	-795.79248	54.43612	173.20877	-699.95117	280.28265	879.87610	-643.61096	212.72391	828.49231	-741.31360	275.77515	750.43719	-763.91669	253.27032	638.41888	-728.23566	144.68968	576.36938	-763.01001	248.66187	575.67249	-707.69940	205.90790	537.18402	-799.00983	259.91461	500.30777	-772.84772	226.64954	203.38602	-665.54041	299.17520	159.71924	-627.83722	307.00903	161.60474	-562.01703	260.54770	165.63518	-595.51288	223.20457	173.59032	-714.64417	155.71278	219.69675	-675.90649	174.31075	159.30679	-797.54401	176.48436	182.32033	-527.99023	303.66187	146.45894	-518.01074	-73.10782	143.01402	-875.51202	-78.74667	140.88904	-882.60480	296.10779	144.58582	
201	4.000	-618.54327	88.55849	1840.30493	-648.56805	-81.18475	1534.06995	-644.37494	275.74701	1533.01208	-590.42371	89.82709	1408.86023	-660.38593	-13.86363	1051.82117	-644.43951	210.98106	1069.41638	-859.76892	101.68220	1047.94287	-705.40289	-64.57001	860.41040	-648.45966	-10.27667	810.04010	-736.27875	-51.62797	708.89905	-744.26636	-27.10275	616.27435	-723.60968	79.76963	574.86804	-753.32764	-23.87929	568.00793	-698.42847	16.72449	524.85022	-794.59247	-32.70408	486.10596	-770.80145	-6.71012	205.68111	-665.53210	-68.63486	161.25179	-624.55048	-79.55789	158.63493	-561.05505	-40.51957	162.65479	-603.72723	18.24225	168.26852	-718.72864	74.96168	218.62093	-674.98987	54.16605	161.28978	-795.67627	54.39665	173.28082	-696.53931	279.70624	879.81927	-639.92920	212.31270	828.58221	-738.19092	275.25797	750.56274	-761.24554	252.78131	638.67755	-725.99481	144.38034	576.51233	-760.94617	248.30434	575.90967	-705.82404	205.62654	537.02222	-797.35236	259.42184	500.63104	-772.71960	226.55618	203.45468	-665.55286	299.15424	159.72154	-627.90082	307.03564	161.58498	-562.01727	260.62714	165.67567	-595.43555	223.20493	173.58028	-714.16144	155.52261	219.62524	-675.90430	174.36497	159.14847	-797.39502	176.47610	182.23862	-528.03503	303.71036	146.44205	-518.00818	-73.08244	143.02054	-875.39111	-78.71974	140.82179	-882.57971	296.08627	144.55957	
